<svg width="33" height="32" viewBox="0 0 33 32" fill="none" xmlns="http://www.w3.org/2000/svg">
<path d="M24.1011 16C24.1011 15.5945 24.3801 15.2398 24.7776 15.1478C27.7445 14.4559 29.8158 11.8427 29.8158 8.78711C29.8158 5.18162 26.8901 2.25 23.2975 2.25C20.2318 2.25 17.5474 4.43318 16.9193 7.43882C16.8349 7.84341 16.4783 8.13464 16.0639 8.13464C15.6495 8.13464 15.293 7.84342 15.2085 7.43885C14.5803 4.43318 11.8959 2.25 8.83015 2.25C5.23764 2.25 2.31186 5.18162 2.31186 8.78711C2.31186 11.8427 4.38316 14.4559 7.35008 15.1478L24.1011 16ZM24.1011 16C24.1011 16.4052 24.3798 16.7598 24.7769 16.8521L24.1011 16ZM8.83015 31.5C11.8854 31.5 14.636 29.7954 16.0639 27.2195C17.4916 29.7954 20.2421 31.5 23.2975 31.5C27.8572 31.5 31.5638 27.7816 31.5638 23.2129C31.5638 20.1523 29.9198 17.4359 27.3694 16C29.9198 14.5641 31.5638 11.8477 31.5638 8.78711C31.5638 4.2184 27.8572 0.5 23.2975 0.5C20.2421 0.5 17.4916 2.20458 16.0639 4.7805C14.636 2.20458 11.8854 0.5 8.83015 0.5C4.27048 0.5 0.563843 4.2184 0.563843 8.78711C0.563843 11.8477 2.20788 14.5641 4.75833 16C2.20788 17.4359 0.563843 20.1523 0.563843 23.2129C0.563843 27.7816 4.27048 31.5 8.83015 31.5ZM23.2975 29.75C20.2319 29.75 17.5475 27.5669 16.9194 24.5613L24.7776 16.8522C27.7445 17.5441 29.8158 20.1573 29.8158 23.2129C29.8158 26.8184 26.8901 29.75 23.2975 29.75ZM16.9193 24.5612C16.8349 24.1566 16.4783 23.8654 16.0639 23.8654C15.6495 23.8654 15.293 24.1566 15.2085 24.5611C14.5803 27.5668 11.8959 29.75 8.83015 29.75C5.23764 29.75 2.31186 26.8184 2.31186 23.2129C2.31186 20.1573 4.38316 17.5441 7.35008 16.8522C7.74759 16.7602 8.0266 16.4055 8.0266 16C8.0266 15.5948 7.74794 15.2402 7.35082 15.1479L16.9193 24.5612Z" fill="#3DB370" stroke="#3DB370"/>
</svg>
